<svg width="800" height="370" viewBox="0 0 800 370" fill="none" xmlns="http://www.w3.org/2000/svg">
<path d="M104.229 182.333L9.06436 31.4286H325H325.855L326.662 31.1444L400 5.30135L473.338 31.1444L474.145 31.4286H475H790.936L695.771 182.333L694.089 185L695.771 187.667L790.936 338.571H475H474.145L473.338 338.856L400 364.699L326.662 338.856L325.855 338.571H325H9.06435L104.229 187.667L105.911 185L104.229 182.333Z" fill="white" stroke="#D7BA6F" stroke-width="10"/>
<path d="M435 36H365L400 24L435 36Z" fill="#D7BA6F"/>
<path d="M365 334L435 334L400 346L365 334Z" fill="#D7BA6F"/>
<path d="M677 162L607 52L747 52L677 162Z" fill="#D7BA6F"/>
<path d="M121 162L51 52L191 52L121 162Z" fill="#D7BA6F"/>
<path d="M122 207L192 317L52 317L122 207Z" fill="#D7BA6F"/>
<path d="M678 207L748 317L608 317L678 207Z" fill="#D7BA6F"/>
</svg>
