<svg width="1000" height="350" viewBox="0 0 1000 350" fill="none" xmlns="http://www.w3.org/2000/svg">
<path d="M104.16 172.227L9.34258 30H425H425.811L426.581 29.7434L500 5.27046L573.419 29.7434L574.189 30H575H990.657L895.84 172.227L893.991 175L895.84 177.773L990.657 320H575H574.189L573.419 320.257L500 344.73L426.581 320.257L425.811 320H425H9.34258L104.16 177.773L106.009 175L104.16 172.227Z" stroke="#D7BA6F" stroke-width="10"/>
<path d="M944 52L874 152L804 52H944Z" fill="#D7BA6F"/>
<path d="M197 52L127 152L57 52H197Z" fill="#D7BA6F"/>
<path d="M804 296L874 196L944 296L804 296Z" fill="#D7BA6F"/>
<path d="M57 296L127 196L197 296L57 296Z" fill="#D7BA6F"/>
<path d="M535 35H465L500 23L535 35Z" fill="#D7BA6F"/>
<path d="M465 313L535 313L500 325L465 313Z" fill="#D7BA6F"/>
</svg>
