<svg width="565" height="600" viewBox="0 0 565 600" fill="none" xmlns="http://www.w3.org/2000/svg">
<mask id="path-1-inside-1_39_87" fill="white">
<path fill-rule="evenodd" clip-rule="evenodd" d="M378.414 55.4322L282.402 0L186.391 55.4322L141.201 55.4322L118.606 94.5676L22.5946 150V260.865L0 300L22.5946 339.135V450L118.607 505.433L141.201 544.567H186.39L282.402 600L378.415 544.567H423.603L446.198 505.433L542.21 450V339.364L565 300L542.21 260.635V150L446.198 94.5677L423.603 55.4322L378.414 55.4322Z"/>
</mask>
<path fill-rule="evenodd" clip-rule="evenodd" d="M378.414 55.4322L282.402 0L186.391 55.4322L141.201 55.4322L118.606 94.5676L22.5946 150V260.865L0 300L22.5946 339.135V450L118.607 505.433L141.201 544.567H186.39L282.402 600L378.415 544.567H423.603L446.198 505.433L542.21 450V339.364L565 300L542.21 260.635V150L446.198 94.5677L423.603 55.4322L378.414 55.4322Z" fill="white"/>
<path d="M282.402 0L287.402 -8.66025L282.402 -11.547L277.402 -8.66025L282.402 0ZM378.414 55.4322L373.414 64.0924L375.734 65.4322L378.414 65.4322L378.414 55.4322ZM186.391 55.4322L186.391 65.4322L189.07 65.4322L191.391 64.0924L186.391 55.4322ZM141.201 55.4322L141.201 45.4322L135.428 45.4322L132.541 50.4322L141.201 55.4322ZM118.606 94.5676L123.606 103.228L125.927 101.888L127.267 99.5676L118.606 94.5676ZM22.5946 150L17.5946 141.34L12.5946 144.226V150H22.5946ZM22.5946 260.865L31.2549 265.865L32.5946 263.544V260.865H22.5946ZM0 300L-8.66025 295L-11.547 300L-8.66025 305L0 300ZM22.5946 339.135H32.5946V336.455L31.2549 334.135L22.5946 339.135ZM22.5946 450H12.5946V455.774L17.5946 458.66L22.5946 450ZM118.607 505.433L127.267 500.433L125.927 498.112L123.607 496.772L118.607 505.433ZM141.201 544.567L132.541 549.567L135.428 554.567H141.201V544.567ZM186.39 544.567L191.39 535.907L189.069 534.567H186.39V544.567ZM282.402 600L277.402 608.66L282.402 611.547L287.402 608.66L282.402 600ZM378.415 544.567V534.567H375.735L373.415 535.907L378.415 544.567ZM423.603 544.567V554.567H429.377L432.264 549.567L423.603 544.567ZM446.198 505.433L441.198 496.772L438.877 498.112L437.538 500.433L446.198 505.433ZM542.21 450L547.21 458.66L552.21 455.774V450H542.21ZM542.21 339.364L533.556 334.354L532.21 336.679V339.364H542.21ZM565 300L573.654 305.01L576.555 300L573.654 294.989L565 300ZM542.21 260.635H532.21V263.321L533.556 265.645L542.21 260.635ZM542.21 150H552.21V144.226L547.21 141.34L542.21 150ZM446.198 94.5677L437.538 99.5677L438.878 101.888L441.198 103.228L446.198 94.5677ZM423.603 55.4322L432.264 50.4322L429.377 45.4322L423.603 45.4322L423.603 55.4322ZM277.402 8.66025L373.414 64.0924L383.414 46.7719L287.402 -8.66025L277.402 8.66025ZM191.391 64.0924L287.402 8.66025L277.402 -8.66025L181.391 46.7719L191.391 64.0924ZM141.201 65.4322L186.391 65.4322L186.391 45.4322L141.201 45.4322L141.201 65.4322ZM127.267 99.5676L149.861 60.4322L132.541 50.4322L109.946 89.5677L127.267 99.5676ZM27.5946 158.66L123.606 103.228L113.606 85.9074L17.5946 141.34L27.5946 158.66ZM32.5946 260.865V150H12.5946V260.865H32.5946ZM8.66025 305L31.2549 265.865L13.9343 255.865L-8.66025 295L8.66025 305ZM31.2549 334.135L8.66025 295L-8.66025 305L13.9343 344.135L31.2549 334.135ZM32.5946 450V339.135H12.5946V450H32.5946ZM123.607 496.772L27.5946 441.34L17.5946 458.66L113.607 514.093L123.607 496.772ZM149.861 539.567L127.267 500.433L109.947 510.433L132.541 549.567L149.861 539.567ZM186.39 534.567H141.201V554.567H186.39V534.567ZM287.402 591.34L191.39 535.907L181.39 553.228L277.402 608.66L287.402 591.34ZM373.415 535.907L277.402 591.34L287.402 608.66L383.415 553.227L373.415 535.907ZM423.603 534.567H378.415V554.567H423.603V534.567ZM437.538 500.433L414.943 539.567L432.264 549.567L454.858 510.433L437.538 500.433ZM537.21 441.34L441.198 496.772L451.198 514.093L547.21 458.66L537.21 441.34ZM532.21 339.364V450H552.21V339.364H532.21ZM556.346 294.989L533.556 334.354L550.864 344.375L573.654 305.01L556.346 294.989ZM533.556 265.645L556.346 305.01L573.654 294.989L550.864 255.625L533.556 265.645ZM532.21 150V260.635H552.21V150H532.21ZM441.198 103.228L537.21 158.66L547.21 141.34L451.198 85.9075L441.198 103.228ZM414.943 60.4322L437.538 99.5677L454.859 89.5677L432.264 50.4322L414.943 60.4322ZM378.414 65.4322L423.603 65.4322L423.603 45.4322L378.414 45.4322L378.414 65.4322Z" fill="#D7BA6F" mask="url(#path-1-inside-1_39_87)"/>
<path d="M282.5 7V297.5M282.5 297.5L31 445.5M282.5 297.5L536.5 446" stroke="#D7BA6F" stroke-width="10"/>
</svg>
